<svg class="w-[75px] lg:w-[109px] h-auto" width="109" height="42" viewBox="0 0 109 42" fill="none" xmlns="http://www.w3.org/2000/svg"><path d="M64.3591 25.7047V7.15046L64.1521 6.94353H56.6338L54.2656 2.87402H79.5337V6.94353H69.4403L69.1414 7.15046V25.7047H64.3591Z" fill="#FF8200"></path><path d="M0 2.87402H18.0486C19.2212 2.87402 20.2558 3.01197 21.2215 3.31086C22.1872 3.60975 22.9919 4.04659 23.6586 4.64437C24.3254 5.24215 24.8312 5.88592 25.1991 6.71362C25.567 7.51832 25.7049 8.41499 25.7049 9.35765C25.7049 10.3003 25.475 11.4959 24.9692 12.3006C24.6703 12.7374 24.3024 13.1742 23.8656 13.5421V13.91C25.7049 15.0136 26.6016 16.8529 26.6016 19.29C26.6016 21.7271 25.7969 22.9687 24.3254 24.0033C22.8539 25.0379 20.7157 25.5437 17.8417 25.5437H0.0229915M4.85129 7.67926V21.0833L5.08121 21.3133H17.8877C19.6581 21.3133 20.5317 21.0144 20.9916 20.7155C21.4974 20.3476 21.7963 19.8418 21.7963 19.0141C21.7963 18.1864 21.5664 17.1058 21.0606 16.646C20.5547 16.2091 19.6581 16.0482 18.4855 16.0482H8.55298L6.48371 12.4385H18.2785C19.1522 12.4385 19.819 12.2086 20.4168 11.7028C21.0146 11.197 21.1525 10.2313 21.1525 9.63354C21.1525 9.03576 20.9226 8.392 20.4858 8.02413C19.9799 7.58729 19.3132 7.42635 18.4165 7.42635H5.15018L4.85129 7.65627V7.67926Z" fill="#FF8200"></path><path d="M81.6016 25.7047V2.87402H99.6502C100.823 2.87402 101.857 3.01197 102.823 3.31086C103.789 3.60975 104.593 4.04659 105.26 4.64437C105.927 5.24215 106.433 5.88592 106.801 6.71362C107.169 7.51832 107.306 8.41499 107.306 9.35765C107.306 10.3003 107.077 11.4959 106.571 12.3006C106.272 12.7374 105.904 13.1742 105.467 13.5421V13.91C107.306 15.0136 108.203 16.8529 108.203 19.29C108.203 21.7271 107.398 22.9687 105.927 24.0033C104.455 25.0379 102.317 25.5437 99.4433 25.5437H81.6246V25.6817L81.6016 25.7047ZM86.4528 7.67926V21.0833L86.6828 21.3133H99.4892C101.26 21.3133 102.133 21.0144 102.593 20.7155C103.099 20.3476 103.398 19.8418 103.398 19.0141C103.398 18.1864 103.168 17.1058 102.662 16.646C102.156 16.2091 101.26 16.0482 100.087 16.0482H90.0626L87.9933 12.4385H99.7881C100.662 12.4385 101.329 12.2086 101.926 11.7028C102.524 11.197 102.731 10.2313 102.731 9.63354C102.731 9.03576 102.501 8.392 102.064 8.02413C101.559 7.58729 100.892 7.42635 99.9951 7.42635H86.7288L86.4299 7.65627L86.4528 7.67926Z" fill="#FF8200"></path><path class="steering-wheel" d="M42.7947 0V4.11549C46.6344 4.48336 49.7153 7.05841 50.9798 10.5991H45.8986H46.3355C46.3355 10.5991 46.2665 10.0933 45.3698 9.63347C44.703 9.33458 42.9327 9.03569 41.898 9.03569C40.8634 9.03569 39.162 9.2656 38.5182 9.63347C37.5526 10.0703 37.6445 10.5991 37.6445 10.5991H32.7932C33.9658 7.05841 37.1387 4.48336 40.9784 4.11549V0C33.8279 0.505815 28.1719 6.48362 28.1719 13.703C28.1719 20.9223 34.3567 27.4749 41.944 27.4749C49.5313 27.4749 55.7161 21.2902 55.7161 13.703C55.5782 6.41465 49.8992 0.43684 42.8177 0M40.0587 23.1985C35.6442 22.3938 32.2414 18.6232 32.1035 14.0019H36.9548C37.1847 15.5423 38.0584 16.8758 39.093 17.8415C39.9667 18.5772 39.9667 19.8187 39.9667 20.8534V23.2215H40.0357L40.0587 23.1985ZM43.5304 23.1985V20.8304C43.5304 19.7957 43.5304 18.5542 44.4041 17.8185C45.4388 16.9448 46.3125 15.5423 46.5424 13.9789H51.3937C51.2557 18.6232 47.9219 22.4398 43.5075 23.1755" fill="#FF8200"></path><path d="M3.80373 36.5464C4.18863 36.3653 4.48297 36.0936 4.70938 35.754C4.91315 35.4144 5.02636 35.0294 5.02636 34.5766C5.02636 34.1238 4.91315 33.7389 4.70938 33.3993C4.50561 33.0597 4.21127 32.8106 3.80373 32.6068C3.41883 32.4257 2.94336 32.3125 2.37733 32.3125H0V39.3766H1.44904V36.8181H2.08299L3.7358 39.3766H5.4339L3.50939 36.637C3.59996 36.6143 3.69052 36.5691 3.78109 36.5238L3.80373 36.5464ZM1.44904 33.5578H2.28677C2.53582 33.5578 2.76223 33.603 2.94336 33.6936C3.12449 33.7842 3.28298 33.8974 3.37355 34.0559C3.46411 34.2144 3.53203 34.3955 3.53203 34.6219C3.53203 34.8483 3.48675 35.0294 3.37355 35.1879C3.28298 35.3464 3.12449 35.4596 2.94336 35.5502C2.76223 35.6408 2.53582 35.686 2.28677 35.686H1.44904V33.5578Z" fill="#FF8200"></path><path d="M9.55995 34.9182C9.19769 34.7371 8.76751 34.6465 8.24676 34.6465C7.72601 34.6465 7.29582 34.7371 6.91092 34.9408C6.52602 35.1446 6.23168 35.4163 6.02791 35.7785C5.82414 36.1408 5.71094 36.571 5.71094 37.0691C5.71094 37.5672 5.82414 37.9974 6.02791 38.337C6.23168 38.6993 6.52602 38.971 6.91092 39.1747C7.29582 39.3785 7.72601 39.4691 8.22411 39.4691C8.72222 39.4691 9.26561 39.3559 9.67316 39.1295C10.0807 38.903 10.3977 38.5861 10.6467 38.1332L9.51466 37.771C9.37882 37.9974 9.22033 38.1559 8.99392 38.2691C8.79015 38.3823 8.54109 38.4276 8.24676 38.4276C7.95242 38.4276 7.77129 38.3597 7.59016 38.2464C7.40903 38.1332 7.27318 37.9748 7.18262 37.7483C7.11469 37.6125 7.09205 37.454 7.06941 37.2729H10.6467C10.6467 37.2276 10.6467 37.1823 10.6467 37.1144C10.6467 37.0465 10.6467 36.9785 10.6467 36.9333C10.6467 36.4351 10.5562 36.005 10.375 35.6653C10.1939 35.3031 9.92221 35.0314 9.55995 34.8503V34.9182ZM7.59016 35.7333C7.77129 35.6201 7.97506 35.5748 8.22411 35.5748C8.47317 35.5748 8.60902 35.6201 8.76751 35.7106C8.92599 35.8012 9.0392 35.937 9.12976 36.0955C9.19769 36.2314 9.24297 36.3899 9.24297 36.571H7.09205C7.11469 36.4578 7.13734 36.3446 7.18262 36.2314C7.27318 36.005 7.40903 35.8465 7.56752 35.7333H7.59016Z" fill="#FF8200"></path><path d="M14.6321 34.8012C14.3151 34.688 13.9755 34.6201 13.5679 34.6201C13.1604 34.6201 12.7529 34.688 12.3906 34.8012C12.051 34.9145 11.734 35.0503 11.5076 35.1635L11.9831 36.0465C12.051 36.0012 12.1642 35.9333 12.3 35.8654C12.4359 35.7975 12.617 35.7295 12.7981 35.6843C13.0019 35.639 13.2057 35.6163 13.4095 35.6163C13.6132 35.6163 13.6811 35.6163 13.7944 35.6616C13.9076 35.6843 13.9981 35.7295 14.0887 35.7975C14.1793 35.8654 14.2245 35.9333 14.2698 36.0239C14.3151 36.1144 14.3377 36.2276 14.3377 36.3635V36.8616C14.1793 36.771 13.9981 36.7031 13.7717 36.6352C13.5453 36.5673 13.2736 36.5446 12.9793 36.5446C12.3906 36.5446 11.9604 36.6805 11.6434 36.9295C11.3265 37.2012 11.168 37.5408 11.168 37.9937C11.168 38.4465 11.2359 38.5823 11.3944 38.7861C11.5529 39.0125 11.7566 39.171 12.0057 39.2842C12.2547 39.3974 12.5264 39.4653 12.8208 39.4653C13.1151 39.4653 13.3642 39.4201 13.6359 39.3069C13.8849 39.2163 14.1113 39.0578 14.2698 38.854C14.2925 38.8087 14.3377 38.7635 14.3604 38.7182V39.3521H15.6283V36.0465C15.6283 35.7295 15.5377 35.4578 15.3566 35.2541C15.1755 35.0277 14.9491 34.8692 14.6321 34.756V34.8012ZM14.2019 38.1069C14.1113 38.2654 13.9755 38.3786 13.817 38.4691C13.6585 38.5597 13.4774 38.605 13.2736 38.605C13.0698 38.605 13.0019 38.5823 12.8887 38.5371C12.7755 38.4918 12.6849 38.4012 12.617 38.3106C12.5491 38.2201 12.5264 38.1069 12.5264 37.971C12.5264 37.8352 12.5491 37.722 12.617 37.6314C12.6849 37.5408 12.7755 37.4729 12.8887 37.4276C13.0246 37.3823 13.183 37.3597 13.3868 37.3597C13.5906 37.3597 13.8623 37.3823 14.0887 37.4503C14.1793 37.4729 14.2698 37.5182 14.3604 37.5635C14.3604 37.7899 14.3151 37.971 14.2019 38.1295V38.1069Z" fill="#FF8200"></path><path d="M18.0202 31.5186H16.707V39.3977H18.0202V31.5186Z" fill="#FF8200"></path><path d="M26.5591 37.3379L25.2006 34.3945L23.8875 37.3153L22.8686 34.7341H21.4648L23.7516 39.7152L25.2006 36.7492L26.695 39.7152L28.9817 34.7341H27.6006L26.5591 37.3379Z" fill="#FF8200"></path><path d="M30.2221 32.2002C29.9957 32.2002 29.8146 32.2681 29.6561 32.404C29.4976 32.5398 29.4297 32.7209 29.4297 32.9247C29.4297 33.1285 29.4976 33.3096 29.6561 33.4455C29.8146 33.5813 29.9957 33.6492 30.2221 33.6492C30.4485 33.6492 30.6297 33.5813 30.7655 33.4455C30.924 33.3096 30.9919 33.1285 30.9919 32.9247C30.9919 32.7209 30.924 32.5398 30.7655 32.404C30.607 32.2681 30.4259 32.2002 30.2221 32.2002Z" fill="#FF8200"></path><path d="M30.8382 34.7354H29.5703V39.3768H30.8382V34.7354Z" fill="#FF8200"></path><path d="M34.8459 34.6465C34.5062 34.6465 34.2345 34.7144 34.0081 34.8503C33.7817 34.9861 33.5779 35.1899 33.4421 35.4616V34.7597H32.1289V39.4011H33.4421V36.571C33.4421 36.3672 33.4874 36.2087 33.5553 36.0729C33.6232 35.937 33.7364 35.8238 33.8723 35.7333C34.0081 35.6653 34.1666 35.6201 34.3477 35.6201C34.6194 35.6201 34.8232 35.7106 34.9364 35.8691C35.0496 36.0276 35.1176 36.2767 35.1176 36.571V39.4011H36.476V36.4351C36.476 35.8691 36.3402 35.4389 36.0685 35.122C35.7968 34.805 35.3892 34.6465 34.8459 34.6465Z" fill="#FF8200"></path><path d="M40.3927 34.6465C40.0531 34.6465 39.7814 34.7144 39.555 34.8503C39.3286 34.9861 39.1248 35.1899 38.989 35.4616V34.7597H37.6758V39.4011H38.989V36.571C38.989 36.3672 39.0343 36.2087 39.1022 36.0729C39.1701 35.937 39.2833 35.8238 39.4192 35.7333C39.555 35.6653 39.7135 35.6201 39.8946 35.6201C40.1663 35.6201 40.3701 35.7106 40.4833 35.8691C40.5965 36.0276 40.6644 36.2767 40.6644 36.571V39.4011H42.0229V36.4351C42.0229 35.8691 41.8871 35.4389 41.6154 35.122C41.3437 34.805 40.9361 34.6465 40.3927 34.6465Z" fill="#FF8200"></path><path d="M46.7318 34.9182C46.3696 34.7371 45.9394 34.6465 45.4186 34.6465C44.8979 34.6465 44.4677 34.7371 44.0828 34.9408C43.6979 35.1446 43.4036 35.4163 43.1998 35.7785C42.996 36.1408 42.8828 36.571 42.8828 37.0691C42.8828 37.5672 42.996 37.9974 43.1998 38.337C43.4036 38.6993 43.6979 38.971 44.0828 39.1747C44.4677 39.3785 44.8979 39.4691 45.396 39.4691C45.8941 39.4691 46.4375 39.3559 46.845 39.1295C47.2526 38.903 47.5696 38.5861 47.8186 38.1332L46.6865 37.771C46.5507 37.9974 46.3922 38.1559 46.1658 38.2691C45.962 38.3823 45.713 38.4276 45.4186 38.4276C45.1243 38.4276 44.9432 38.3597 44.762 38.2464C44.5809 38.1332 44.4451 37.9748 44.3545 37.7483C44.2866 37.6125 44.2639 37.454 44.2413 37.2729H47.8186C47.8186 37.2276 47.8186 37.1823 47.8186 37.1144C47.8186 37.0465 47.8186 36.9785 47.8186 36.9333C47.8186 36.4351 47.728 36.005 47.5469 35.6653C47.3658 35.3031 47.0941 35.0314 46.7318 34.8503V34.9182ZM44.762 35.7333C44.9432 35.6201 45.1469 35.5748 45.396 35.5748C45.645 35.5748 45.7809 35.6201 45.9394 35.7106C46.0979 35.8012 46.2111 35.937 46.3016 36.0955C46.3696 36.2314 46.4148 36.3899 46.4148 36.571H44.2639C44.2866 36.4578 44.3092 36.3446 44.3545 36.2314C44.4451 36.005 44.5809 35.8465 44.7394 35.7333H44.762Z" fill="#FF8200"></path><path d="M51.1304 34.6428C50.8814 34.6428 50.655 34.7333 50.4286 34.8918C50.2701 35.005 50.1342 35.1635 50.021 35.322V34.7333H48.7305V39.3748H50.021V36.9069C50.021 36.6805 50.0437 36.4993 50.1116 36.3408C50.1795 36.1824 50.2474 36.0692 50.3606 35.9786C50.4738 35.888 50.6097 35.8427 50.7682 35.8427C50.9267 35.8427 51.0172 35.8427 51.1078 35.9107C51.1984 35.956 51.2889 36.0239 51.3795 36.0918L51.9682 34.9824C51.8776 34.8692 51.7418 34.7786 51.6059 34.7107C51.4701 34.6428 51.2889 34.6201 51.1304 34.6201V34.6428Z" fill="#FF8200"></path><path d="M55.4049 36.9538C55.2011 36.8406 54.952 36.7273 54.703 36.6368C54.4992 36.5462 54.3181 36.4783 54.1596 36.4104C54.0011 36.3424 53.8879 36.2745 53.7973 36.2066C53.7068 36.1387 53.6615 36.0481 53.6615 35.9349C53.6615 35.8217 53.7068 35.7311 53.7973 35.6858C53.8879 35.6406 54.0011 35.5953 54.137 35.5953C54.3634 35.5953 54.5898 35.6632 54.8162 35.7764C55.0426 35.8896 55.2464 36.0481 55.4275 36.2292L55.9935 35.4142C55.8351 35.2557 55.6766 35.1425 55.4728 35.0293C55.269 34.916 55.0653 34.8255 54.8388 34.7576C54.6124 34.6896 54.3634 34.667 54.0917 34.667C53.82 34.667 53.503 34.7123 53.254 34.8028C53.0049 34.8934 52.8011 35.0519 52.6426 35.233C52.4841 35.4142 52.4162 35.6632 52.4162 35.9349C52.4162 36.2066 52.4841 36.4556 52.62 36.6368C52.7558 36.8179 52.9143 36.9764 53.1181 37.0896C53.3219 37.2028 53.5256 37.2934 53.7521 37.3839C53.9785 37.4519 54.1596 37.5198 54.3181 37.5877C54.4766 37.6556 54.5898 37.7236 54.6577 37.8141C54.7256 37.9047 54.7709 37.9953 54.7709 38.1311C54.7709 38.267 54.7256 38.3802 54.6351 38.4481C54.5445 38.516 54.4087 38.5613 54.2275 38.5613C54.0464 38.5613 53.9558 38.5386 53.7973 38.4707C53.6389 38.4254 53.4804 38.3349 53.3219 38.2217C53.1634 38.1085 52.9823 37.9726 52.7785 37.7915L52.1445 38.6066C52.3257 38.7651 52.5068 38.9235 52.7332 39.082C52.9596 39.2179 53.2087 39.3537 53.4804 39.4217C53.7521 39.4896 54.0464 39.5575 54.386 39.5575C54.9294 39.5575 55.3369 39.4217 55.6313 39.1726C55.9256 38.9235 56.0841 38.5613 56.0841 38.0858C56.0841 37.6104 56.0162 37.5651 55.903 37.4066C55.7671 37.2255 55.6086 37.0896 55.3822 36.9764L55.4049 36.9538Z" fill="#FF8200"></path><path d="M57.8502 37.9736C57.6238 37.9736 57.4201 38.0416 57.2616 38.2C57.1031 38.3585 57.0352 38.5623 57.0352 38.7887C57.0352 39.0151 57.1031 39.1963 57.2616 39.3548C57.4201 39.5132 57.6238 39.6038 57.8502 39.6038C58.0767 39.6038 58.2804 39.5132 58.4389 39.3548C58.5974 39.1963 58.6653 39.0151 58.6653 38.7887C58.6653 38.5623 58.5974 38.3585 58.4389 38.2C58.2804 38.0416 58.0767 37.9736 57.8502 37.9736Z" fill="#FF8200"></path><path d="M63.9634 32.3125H63.0352V39.3992H63.9634H64.4389H67.5408V38.1766H64.4389V36.2294H67.337V35.0294H64.4389V33.5351H67.5408V32.3125H64.4389H63.9634Z" fill="#FF8200"></path><path d="M70.6178 37.5429L69.4858 34.7354H68.082L70.6178 39.8749L73.1763 34.7354H71.7726L70.6178 37.5429Z" fill="#FF8200"></path><path d="M77.0443 34.9182C76.6821 34.7371 76.2519 34.6465 75.7311 34.6465C75.2104 34.6465 74.7802 34.7371 74.3953 34.9408C74.0104 35.1446 73.7161 35.4163 73.5123 35.7785C73.3085 36.1408 73.1953 36.571 73.1953 37.0691C73.1953 37.5672 73.3085 37.9974 73.5123 38.337C73.7161 38.6993 74.0104 38.971 74.3953 39.1747C74.7802 39.3785 75.2104 39.4691 75.7085 39.4691C76.2066 39.4691 76.75 39.3559 77.1575 39.1295C77.5651 38.903 77.882 38.5861 78.1311 38.1332L76.999 37.771C76.8632 37.9974 76.7047 38.1559 76.4783 38.2691C76.2745 38.3823 76.0255 38.4276 75.7311 38.4276C75.4368 38.4276 75.2557 38.3597 75.0745 38.2464C74.8934 38.1332 74.7576 37.9748 74.667 37.7483C74.5991 37.6125 74.5764 37.454 74.5538 37.2729H78.1311C78.1311 37.2276 78.1311 37.1823 78.1311 37.1144C78.1311 37.0465 78.1311 36.9785 78.1311 36.9333C78.1311 36.4351 78.0405 36.005 77.8594 35.6653C77.6783 35.3031 77.4066 35.0314 77.0443 34.8503V34.9182ZM75.0745 35.7333C75.2557 35.6201 75.4594 35.5748 75.7085 35.5748C75.9575 35.5748 76.0934 35.6201 76.2519 35.7106C76.4104 35.8012 76.5236 35.937 76.6141 36.0955C76.6821 36.2314 76.7273 36.3899 76.7273 36.571H74.5764C74.5991 36.4578 74.6217 36.3446 74.667 36.2314C74.7576 36.005 74.8934 35.8465 75.0519 35.7333H75.0745Z" fill="#FF8200"></path><path d="M81.4429 34.6428C81.1939 34.6428 80.9675 34.7333 80.7411 34.8918C80.5826 35.005 80.4467 35.1635 80.3335 35.322V34.7333H79.043V39.3748H80.3335V36.9069C80.3335 36.6805 80.3562 36.4993 80.4241 36.3408C80.492 36.1824 80.5599 36.0692 80.6731 35.9786C80.7863 35.888 80.9222 35.8427 81.0807 35.8427C81.2392 35.8427 81.3297 35.8427 81.4203 35.9107C81.5109 35.956 81.6014 36.0239 81.692 36.0918L82.2807 34.9824C82.1901 34.8692 82.0543 34.7786 81.9184 34.7107C81.7599 34.6428 81.6014 34.6201 81.4429 34.6201V34.6428Z" fill="#FF8200"></path><path d="M85.1108 37.6334L83.9334 34.7354H82.4844L84.4089 38.924L83.2542 41.6183H84.59L87.6239 34.7354H86.2655L85.1108 37.6334Z" fill="#FF8200"></path><path d="M94.5529 35.5048C94.3945 35.2783 94.2133 35.0972 94.0095 34.9387C93.7152 34.7349 93.3756 34.6444 92.9681 34.6444C92.5605 34.6444 92.2209 34.735 91.8813 34.9161C91.5417 35.0972 91.27 35.3689 91.0435 35.7312C90.8398 36.0934 90.7266 36.5236 90.7266 37.0444C90.7266 37.5651 90.8398 37.9953 91.0435 38.3576C91.2473 38.7198 91.519 38.9915 91.8813 39.1953C92.2435 39.399 92.5832 39.467 92.9681 39.467C93.353 39.467 93.7152 39.3764 94.0095 39.1726C94.236 39.0368 94.4171 38.833 94.5529 38.6066V39.3538H95.8661V31.4746H94.5529V35.4595V35.5048ZM94.3718 37.7915C94.2586 37.9953 94.1001 38.1538 93.919 38.2443C93.7379 38.3349 93.5341 38.4028 93.353 38.4028C93.1718 38.4028 92.9228 38.3576 92.719 38.2443C92.5152 38.1311 92.3794 37.9726 92.2435 37.7689C92.1303 37.5651 92.0624 37.3387 92.0624 37.0444C92.0624 36.75 92.1303 36.5236 92.2435 36.3198C92.3567 36.1161 92.5152 35.9576 92.719 35.8444C92.9228 35.7312 93.1265 35.6859 93.353 35.6859C93.5794 35.6859 93.7379 35.7312 93.919 35.8444C94.1001 35.9576 94.2586 36.0934 94.3718 36.2972C94.485 36.501 94.5529 36.75 94.5529 37.0217C94.5529 37.2934 94.485 37.5425 94.3718 37.7462V37.7915Z" fill="#FF8200"></path><path d="M100.077 34.8012C99.7604 34.688 99.4208 34.6201 99.0133 34.6201C98.6057 34.6201 98.1982 34.688 97.8359 34.8012C97.4963 34.9145 97.1793 35.0503 96.9529 35.1635L97.4284 36.0465C97.4963 36.0012 97.6095 35.9333 97.7453 35.8654C97.8812 35.7975 98.0623 35.7295 98.2435 35.6843C98.4472 35.639 98.651 35.6163 98.8548 35.6163C99.0585 35.6163 99.1265 35.6163 99.2397 35.6616C99.3529 35.6843 99.4434 35.7295 99.534 35.7975C99.6246 35.8654 99.6699 35.9333 99.7151 36.0239C99.7604 36.1144 99.7831 36.2276 99.7831 36.3635V36.8616C99.6246 36.771 99.4434 36.7031 99.217 36.6352C98.9906 36.5673 98.7189 36.5446 98.4246 36.5446C97.8359 36.5446 97.4057 36.6805 97.0888 36.9295C96.7718 37.2012 96.6133 37.5408 96.6133 37.9937C96.6133 38.4465 96.6812 38.5823 96.8397 38.7861C96.9982 39.0125 97.202 39.171 97.451 39.2842C97.7001 39.3974 97.9718 39.4653 98.2661 39.4653C98.5604 39.4653 98.8095 39.4201 99.0812 39.3069C99.3302 39.2163 99.5566 39.0578 99.7151 38.854C99.7378 38.8087 99.7831 38.7635 99.8057 38.7182V39.3521H101.074V36.0465C101.074 35.7295 100.983 35.4578 100.802 35.2541C100.621 35.0277 100.394 34.8692 100.077 34.756V34.8012ZM99.6472 38.1069C99.5566 38.2654 99.4208 38.3786 99.2623 38.4691C99.1038 38.5597 98.9227 38.605 98.7189 38.605C98.5152 38.605 98.4472 38.5823 98.334 38.5371C98.2208 38.4918 98.1303 38.4012 98.0623 38.3106C97.9944 38.2201 97.9718 38.1069 97.9718 37.971C97.9718 37.8352 97.9944 37.722 98.0623 37.6314C98.1303 37.5408 98.2208 37.4729 98.334 37.4276C98.4699 37.3823 98.6284 37.3597 98.8321 37.3597C99.0359 37.3597 99.3076 37.3823 99.534 37.4503C99.6246 37.4729 99.7151 37.5182 99.8057 37.5635C99.8057 37.7899 99.7604 37.971 99.6472 38.1295V38.1069Z" fill="#FF8200"></path><path d="M105.188 34.7354L104.033 37.6334L102.879 34.7354H101.43L103.354 38.924L102.177 41.6183H103.513L106.547 34.7354H105.188Z" fill="#FF8200"></path><path d="M107.978 38.2215C107.819 38.063 107.616 37.9951 107.389 37.9951C107.163 37.9951 106.959 38.063 106.801 38.2215C106.642 38.38 106.574 38.5838 106.574 38.8102C106.574 39.0366 106.642 39.2177 106.801 39.3762C106.959 39.5347 107.163 39.6253 107.389 39.6253C107.616 39.6253 107.819 39.5347 107.978 39.3762C108.136 39.2177 108.204 39.0366 108.204 38.8102C108.204 38.5838 108.136 38.38 107.978 38.2215Z" fill="#FF8200"></path></svg>